<svg width="17" height="14" viewBox="0 0 17 14" fill="none" xmlns="http://www.w3.org/2000/svg">
<path d="M15.1032 0.955023C15.2056 0.850572 15.3278 0.767594 15.4626 0.710947C15.5975 0.6543 15.7422 0.625122 15.8885 0.625122C16.0347 0.625122 16.1795 0.6543 16.3144 0.710947C16.4492 0.767594 16.5714 0.850572 16.6737 0.955023C17.1027 1.38852 17.1087 2.08902 16.6887 2.53002L7.81924 13.015C7.71854 13.1256 7.59633 13.2145 7.4601 13.2762C7.32388 13.3379 7.17648 13.3712 7.02695 13.374C6.87741 13.3768 6.72888 13.3491 6.59042 13.2925C6.45197 13.236 6.32652 13.1517 6.22174 13.045L0.824738 7.57602C0.616594 7.36375 0.5 7.07832 0.5 6.78102C0.5 6.48373 0.616594 6.19829 0.824738 5.98602C0.927107 5.88157 1.04929 5.79859 1.18412 5.74195C1.31896 5.6853 1.46374 5.65612 1.60999 5.65612C1.75624 5.65612 1.90102 5.6853 2.03586 5.74195C2.17069 5.79859 2.29287 5.88157 2.39524 5.98602L6.97324 10.6255L15.0732 0.988023C15.0826 0.976431 15.0926 0.965411 15.1032 0.955023Z" fill="#666"/>
</svg>
