<svg width="16" height="19" viewBox="0 0 16 19" fill="none" xmlns="http://www.w3.org/2000/svg">
<path d="M1 18.2401L1.62509 17.4066C2.69563 15.9792 4.22487 14.9638 5.95583 14.5311V14.5311C7.19291 14.2218 8.48709 14.2218 9.72417 14.5311V14.5311C11.4551 14.9638 12.9844 15.9792 14.0549 17.4066L14.68 18.2401" stroke="#646464" stroke-width="2"/>
<path d="M11.4012 6.08C11.4012 6.77352 10.9876 8.10565 10.2247 9.2914C9.43508 10.5186 8.55563 11.16 7.84125 11.16C7.12687 11.16 6.24742 10.5186 5.4578 9.2914C4.69486 8.10565 4.28125 6.77352 4.28125 6.08C4.28125 4.5965 4.73348 3.29194 5.41684 2.38079C6.09997 1.46995 6.96737 1 7.84125 1C8.71513 1 9.58253 1.46995 10.2657 2.38079C10.949 3.29194 11.4012 4.5965 11.4012 6.08Z" stroke="#646464" stroke-width="2"/>
</svg>
